  0
SECTION
  2
HEADER
  9
$ACADVER
  1
AC1015
  9
$ACADMAINTVER
 70
     6
  9
$DWGCODEPAGE
  3
ANSI_1252
  9
$INSBASE
 10
0.0
 20
0.0
 30
0.0
  9
$EXTMIN
 10
0.0
 20
-2410.7146181504
 30
0.0
  9
$EXTMAX
 10
1233.415301948
 20
0.0
 30
0.0
  9
$LIMMIN
 10
0.0
 20
0.0
  9
$LIMMAX
 10
420.0
 20
297.0
  9
$ORTHOMODE
 70
     0
  9
$REGENMODE
 70
     1
  9
$FILLMODE
 70
     1
  9
$QTEXTMODE
 70
     0
  9
$MIRRTEXT
 70
     1
  9
$LTSCALE
 40
1.0
  9
$ATTMODE
 70
     1
  9
$TEXTSIZE
 40
3.5
  9
$TRACEWID
 40
1.0
  9
$TEXTSTYLE
  7
Standard
  9
$CLAYER
  8
0
  9
$CELTYPE
  6
ByLayer
  9
$CECOLOR
 62
   256
  9
$CELTSCALE
 40
1.0
  9
$DISPSILH
 70
     0
  9
$DIMSCALE
 40
1.0
  9
$DIMASZ
 40
3.302
  9
$DIMEXO
 40
0.0
  9
$DIMDLI
 40
3.75
  9
$DIMRND
 40
0.0
  9
$DIMDLE
 40
0.0
  9
$DIMEXE
 40
1.0
  9
$DIMTP
 40
0.0
  9
$DIMTM
 40
0.0
  9
$DIMTXT
 40
3.5
  9
$DIMCEN
 40
2.5
  9
$DIMTSZ
 40
0.0
  9
$DIMTOL
 70
     0
  9
$DIMLIM
 70
     0
  9
$DIMTIH
 70
     1
  9
$DIMTOH
 70
     1
  9
$DIMSE1
 70
     0
  9
$DIMSE2
 70
     0
  9
$DIMTAD
 70
     1
  9
$DIMZIN
 70
     1
  9
$DIMBLK
  1

  9
$DIMASO
 70
     1
  9
$DIMSHO
 70
     1
  9
$DIMPOST
  1

  9
$DIMAPOST
  1

  9
$DIMALT
 70
     0
  9
$DIMALTD
 70
     3
  9
$DIMALTF
 40
0.0393700787
  9
$DIMLFAC
 40
1.0
  9
$DIMTOFL
 70
     1
  9
$DIMTVP
 40
0.0
  9
$DIMTIX
 70
     0
  9
$DIMSOXD
 70
     0
  9
$DIMSAH
 70
     0
  9
$DIMBLK1
  1

  9
$DIMBLK2
  1

  9
$DIMSTYLE
  2
ISO-25
  9
$DIMCLRD
 70
     0
  9
$DIMCLRE
 70
     0
  9
$DIMCLRT
 70
     0
  9
$DIMTFAC
 40
1.0
  9
$DIMGAP
 40
1.524
  9
$DIMJUST
 70
     0
  9
$DIMSD1
 70
     0
  9
$DIMSD2
 70
     0
  9
$DIMTOLJ
 70
     0
  9
$DIMTZIN
 70
     1
  9
$DIMALTZ
 70
     0
  9
$DIMALTTZ
 70
     0
  9
$DIMUPT
 70
     0
  9
$DIMDEC
 70
     2
  9
$DIMTDEC
 70
     2
  9
$DIMALTU
 70
     2
  9
$DIMALTTD
 70
     3
  9
$DIMTXSTY
  7
Standard
  9
$DIMAUNIT
 70
     0
  9
$DIMADEC
 70
     2
  9
$DIMALTRND
 40
0.0
  9
$DIMAZIN
 70
     0
  9
$DIMDSEP
 70
    44
  9
$DIMATFIT
 70
     3
  9
$DIMFRAC
 70
     0
  9
$DIMLDRBLK
  1

  9
$DIMLUNIT
 70
     2
  9
$DIMLWD
 70
    -2
  9
$DIMLWE
 70
    -2
  9
$DIMTMOVE
 70
     0
  9
$LUNITS
 70
     2
  9
$LUPREC
 70
     2
  9
$SKETCHINC
 40
1.0
  9
$FILLETRAD
 40
0.0
  9
$AUNITS
 70
     0
  9
$AUPREC
 70
     2
  9
$MENU
  1
.
  9
$ELEVATION
 40
0.0
  9
$PELEVATION
 40
0.0
  9
$THICKNESS
 40
0.0
  9
$LIMCHECK
 70
     0
  9
$CHAMFERA
 40
0.0
  9
$CHAMFERB
 40
0.0
  9
$CHAMFERC
 40
0.0
  9
$CHAMFERD
 40
0.0
  9
$SKPOLY
 70
     0
  9
$TDCREATE
 40
2460863.557774121
  9
$TDUCREATE
 40
2460863.307774121
  9
$TDUPDATE
 40
2460863.558421458
  9
$TDUUPDATE
 40
2460863.308421458
  9
$TDINDWG
 40
0.0000000116
  9
$TDUSRTIMER
 40
0.0000000116
  9
$USRTIMER
 70
     1
  9
$ANGBASE
 50
0.0
  9
$ANGDIR
 70
     0
  9
$PDMODE
 70
     0
  9
$PDSIZE
 40
-1.0
  9
$PLINEWID
 40
0.0
  9
$SPLFRAME
 70
     0
  9
$SPLINETYPE
 70
     6
  9
$SPLINESEGS
 70
     8
  9
$HANDSEED
  5
B2
  9
$SURFTAB1
 70
     6
  9
$SURFTAB2
 70
     6
  9
$SURFTYPE
 70
     6
  9
$SURFU
 70
     6
  9
$SURFV
 70
     6
  9
$UCSBASE
  2

  9
$UCSNAME
  2

  9
$UCSORG
 10
0.0
 20
0.0
 30
0.0
  9
$UCSXDIR
 10
1.0
 20
0.0
 30
0.0
  9
$UCSYDIR
 10
0.0
 20
1.0
 30
0.0
  9
$UCSORTHOREF
  2

  9
$UCSORTHOVIEW
 70
     0
  9
$UCSORGTOP
 10
0.0
 20
0.0
 30
0.0
  9
$UCSORGBOTTOM
 10
0.0
 20
0.0
 30
0.0
  9
$UCSORGLEFT
 10
0.0
 20
0.0
 30
0.0
  9
$UCSORGRIGHT
 10
0.0
 20
0.0
 30
0.0
  9
$UCSORGFRONT
 10
0.0
 20
0.0
 30
0.0
  9
$UCSORGBACK
 10
0.0
 20
0.0
 30
0.0
  9
$PUCSBASE
  2

  9
$PUCSNAME
  2

  9
$PUCSORG
 10
0.0
 20
0.0
 30
0.0
  9
$PUCSXDIR
 10
1.0
 20
0.0
 30
0.0
  9
$PUCSYDIR
 10
0.0
 20
1.0
 30
0.0
  9
$PUCSORTHOREF
  2

  9
$PUCSORTHOVIEW
 70
     0
  9
$PUCSORGTOP
 10
0.0
 20
0.0
 30
0.0
  9
$PUCSORGBOTTOM
 10
0.0
 20
0.0
 30
0.0
  9
$PUCSORGLEFT
 10
0.0
 20
0.0
 30
0.0
  9
$PUCSORGRIGHT
 10
0.0
 20
0.0
 30
0.0
  9
$PUCSORGFRONT
 10
0.0
 20
0.0
 30
0.0
  9
$PUCSORGBACK
 10
0.0
 20
0.0
 30
0.0
  9
$USERI1
 70
     0
  9
$USERI2
 70
     0
  9
$USERI3
 70
     0
  9
$USERI4
 70
     0
  9
$USERI5
 70
     0
  9
$USERR1
 40
0.0
  9
$USERR2
 40
0.0
  9
$USERR3
 40
0.0
  9
$USERR4
 40
0.0
  9
$USERR5
 40
0.0
  9
$WORLDVIEW
 70
     1
  9
$SHADEDGE
 70
     3
  9
$SHADEDIF
 70
    70
  9
$TILEMODE
 70
     1
  9
$MAXACTVP
 70
    64
  9
$PINSBASE
 10
0.0
 20
0.0
 30
0.0
  9
$PLIMCHECK
 70
     0
  9
$PEXTMIN
 10
1.0000000000E+20
 20
1.0000000000E+20
 30
1.0000000000E+20
  9
$PEXTMAX
 10
-1.0000000000E+20
 20
-1.0000000000E+20
 30
-1.0000000000E+20
  9
$PLIMMIN
 10
0.0
 20
0.0
  9
$PLIMMAX
 10
420.0
 20
297.0
  9
$UNITMODE
 70
     0
  9
$VISRETAIN
 70
     1
  9
$PLINEGEN
 70
     0
  9
$PSLTSCALE
 70
     1
  9
$TREEDEPTH
 70
  3020
  9
$CMLSTYLE
  2
Standard
  9
$CMLJUST
 70
     0
  9
$CMLSCALE
 40
20.0
  9
$PROXYGRAPHICS
 70
     1
  9
$MEASUREMENT
 70
     1
  9
$CELWEIGHT
370
    -1
  9
$ENDCAPS
280
     0
  9
$JOINSTYLE
280
     0
  9
$LWDISPLAY
290
     1
  9
$INSUNITS
 70
     4
  9
$HYPERLINKBASE
  1

  9
$STYLESHEET
  1

  9
$XEDIT
290
     1
  9
$CEPSNTYPE
380
     0
  9
$PSTYLEMODE
290
     1
  9
$FINGERPRINTGUID
  2
{15019df4-ac5c-4ff6-9607-b533dcaf9cfd}
  9
$VERSIONGUID
  2
{FAEB1C32-E019-11D5-929B-00C0DF256EC4}
  9
$EXTNAMES
290
     1
  9
$PSVPSCALE
 40
0.0
  9
$OLESTARTUP
290
     0
  0
ENDSEC
  0
SECTION
  2
CLASSES
  0
CLASS
  1
ACDBDICTIONARYWDFLT
  2
AcDbDictionaryWithDefault
  3
ObjectDBX Classes
 90
        0
280
     0
281
     0
  0
CLASS
  1
VISUALSTYLE
  2
AcDbVisualStyle
  3
ObjectDBX Classes
 90
     4095
280
     0
281
     0
  0
CLASS
  1
MATERIAL
  2
AcDbMaterial
  3
ObjectDBX Classes
 90
     1153
280
     0
281
     0
  0
CLASS
  1
SCALE
  2
AcDbScale
  3
ObjectDBX Classes
 90
     1153
280
     0
281
     0
  0
CLASS
  1
TABLESTYLE
  2
AcDbTableStyle
  3
ObjectDBX Classes
 90
     4095
280
     0
281
     0
  0
CLASS
  1
MLEADERSTYLE
  2
AcDbMLeaderStyle
  3
ACDB_MLEADERSTYLE_CLASS
 90
     4095
280
     0
281
     0
  0
CLASS
  1
SUN
  2
AcDbSun
  3
SCENEOE
 90
     1153
280
     0
281
     0
  0
CLASS
  1
ACDBPLACEHOLDER
  2
AcDbPlaceHolder
  3
ObjectDBX Classes
 90
        0
280
     0
281
     0
  0
CLASS
  1
LAYOUT
  2
AcDbLayout
  3
ObjectDBX Classes
 90
        0
280
     0
281
     0
  0
ENDSEC
  0
SECTION
  2
TABLES
  0
TABLE
  2
VPORT
  5
8
330
0
100
AcDbSymbolTable
 70
     1
  0
VPORT
  5
29
330
8
100
AcDbSymbolTableRecord
100
AcDbViewportTableRecord
  2
*Active
 70
     0
 10
0.0
 20
0.0
 11
1.0
 21
1.0
 12
616.707650974
 22
-1205.3573090752
 13
0.0
 23
0.0
 14
10.0
 24
10.0
 15
10.0
 25
10.0
 16
0.0
 26
0.0
 36
1.0
 17
0.0
 27
0.0
 37
0.0
 40
2458.9289105134
 41
0.5116388695
 42
50.0
 43
0.0
 44
0.0
 50
0.0
 51
0.0
 71
     0
 72
   100
 73
     1
 74
     3
 75
     0
 76
     0
 77
     0
 78
     0
281
     0
 65
     1
110
0.0
120
0.0
130
0.0
111
1.0
121
0.0
131
0.0
112
0.0
122
1.0
132
0.0
 79
     0
146
0.0
  0
ENDTAB
  0
TABLE
  2
LTYPE
  5
5
330
0
100
AcDbSymbolTable
 70
     6
  0
LTYPE
  5
14
330
5
100
AcDbSymbolTableRecord
100
AcDbLinetypeTableRecord
  2
ByBlock
 70
     0
  3

 72
    65
 73
     0
 40
0.0
  0
LTYPE
  5
15
330
5
100
AcDbSymbolTableRecord
100
AcDbLinetypeTableRecord
  2
ByLayer
 70
     0
  3

 72
    65
 73
     0
 40
0.0
  0
LTYPE
  5
16
330
5
100
AcDbSymbolTableRecord
100
AcDbLinetypeTableRecord
  2
Continuous
 70
     0
  3
Solid line
 72
    65
 73
     0
 40
0.0
  0
LTYPE
  5
5E
330
5
100
AcDbSymbolTableRecord
100
AcDbLinetypeTableRecord
  2
HIDDEN
 70
     0
  3
Hidden __ __ __ __ __ __ __ __ __ __ __ __ __ __
 72
    65
 73
     2
 40
1.905
 49
1.27
 74
     0
 49
-0.635
 74
     0
  0
LTYPE
  5
5F
330
5
100
AcDbSymbolTableRecord
100
AcDbLinetypeTableRecord
  2
PHANTOM
 70
     0
  3
Phantom ______  __  __  ______  __  __  ______
 72
    65
 73
     6
 40
12.7
 49
6.35
 74
     0
 49
-1.27
 74
     0
 49
1.27
 74
     0
 49
-1.27
 74
     0
 49
1.27
 74
     0
 49
-1.27
 74
     0
  0
LTYPE
  5
60
330
5
100
AcDbSymbolTableRecord
100
AcDbLinetypeTableRecord
  2
CENTER
 70
     0
  3
Center ____ _ ____ _ ____ _ ____ _ ____ _ ____
 72
    65
 73
     4
 40
10.16
 49
6.35
 74
     0
 49
-1.27
 74
     0
 49
1.27
 74
     0
 49
-1.27
 74
     0
  0
LTYPE
  5
61
330
5
100
AcDbSymbolTableRecord
100
AcDbLinetypeTableRecord
  2
CENTERX2
 70
     0
  3
Center (2x) ________  __  ________  __  _____
 72
    65
 73
     4
 40
20.32
 49
12.7
 74
     0
 49
-2.54
 74
     0
 49
2.54
 74
     0
 49
-2.54
 74
     0
  0
LTYPE
  5
62
330
5
100
AcDbSymbolTableRecord
100
AcDbLinetypeTableRecord
  2
DOT2
 70
     0
  3
Dot (.5x) ........................................
 72
    65
 73
     2
 40
0.635
 49
0.0
 74
     0
 49
-0.635
 74
     0
  0
ENDTAB
  0
TABLE
  2
LAYER
  5
2
330
0
100
AcDbSymbolTable
 70
     1
  0
LAYER
  5
10
330
2
100
AcDbSymbolTableRecord
100
AcDbLayerTableRecord
  2
0
 70
     0
 62
     7
  6
Continuous
370
    -3
390
F
  0
ENDTAB
  0
TABLE
  2
STYLE
  5
3
330
0
100
AcDbSymbolTable
 70
     1
  0
STYLE
  5
11
330
3
100
AcDbSymbolTableRecord
100
AcDbTextStyleTableRecord
  2
Standard
 70
     0
 40
0.0
 41
1.0
 50
0.0
 71
     0
 42
3.5
  3
txt
  4

  0
ENDTAB
  0
TABLE
  2
VIEW
  5
6
330
0
100
AcDbSymbolTable
 70
     0
  0
ENDTAB
  0
TABLE
  2
UCS
  5
7
330
0
100
AcDbSymbolTable
 70
     0
  0
ENDTAB
  0
TABLE
  2
APPID
  5
9
330
0
100
AcDbSymbolTable
 70
     1
  0
APPID
  5
12
330
9
100
AcDbSymbolTableRecord
100
AcDbRegAppTableRecord
  2
ACAD
 70
     0
  0
ENDTAB
  0
TABLE
  2
DIMSTYLE
  5
A
330
0
100
AcDbSymbolTable
 70
     1
100
AcDbDimStyleTable
  0
DIMSTYLE
105
27
330
A
100
AcDbSymbolTableRecord
100
AcDbDimStyleTableRecord
  2
ISO-25
 70
     0
 41
2.5
 42
0.625
 43
3.75
 44
1.25
 73
     0
 74
     0
 77
     1
 78
     8
140
2.5
141
2.5
143
0.0393700787
147
0.625
171
     3
172
     1
178
     0
271
     2
272
     2
274
     3
278
    44
283
     0
284
     8
340
11
  0
ENDTAB
  0
TABLE
  2
BLOCK_RECORD
  5
1
330
0
100
AcDbSymbolTable
 70
     1
  0
BLOCK_RECORD
  5
1F
330
1
100
AcDbSymbolTableRecord
100
AcDbBlockTableRecord
  2
*Model_Space
340
22
  0
BLOCK_RECORD
  5
1B
330
1
100
AcDbSymbolTableRecord
100
AcDbBlockTableRecord
  2
*Paper_Space
340
1E
  0
BLOCK_RECORD
  5
23
330
1
100
AcDbSymbolTableRecord
100
AcDbBlockTableRecord
  2
*Paper_Space0
340
26
  0
ENDTAB
  0
ENDSEC
  0
SECTION
  2
BLOCKS
  0
BLOCK
  5
20
330
1F
100
AcDbEntity
  8
0
100
AcDbBlockBegin
  2
*Model_Space
 70
     0
 10
0.0
 20
0.0
 30
0.0
  3
*Model_Space
  1

  0
ENDBLK
  5
21
330
1F
100
AcDbEntity
  8
0
100
AcDbBlockEnd
  0
BLOCK
  5
1C
330
1B
100
AcDbEntity
 67
     1
  8
0
100
AcDbBlockBegin
  2
*Paper_Space
 70
     0
 10
0.0
 20
0.0
 30
0.0
  3
*Paper_Space
  1

  0
ENDBLK
  5
1D
330
1B
100
AcDbEntity
 67
     1
  8
0
100
AcDbBlockEnd
  0
BLOCK
  5
24
330
23
100
AcDbEntity
  8
0
100
AcDbBlockBegin
  2
*Paper_Space0
 70
     0
 10
0.0
 20
0.0
 30
0.0
  3
*Paper_Space0
  1

  0
ENDBLK
  5
25
330
23
100
AcDbEntity
  8
0
100
AcDbBlockEnd
  0
ENDSEC
  0
SECTION
  2
ENTITIES
  0
LWPOLYLINE
  5
63
330
1F
100
AcDbEntity
  8
0
  6
Continuous
 62
     7
100
AcDbPolyline
 90
        9
 70
   128
 43
0.0
 10
1030.8774865091
 20
-1083.414783752
 10
1031.2155628565
 20
-1087.6289893345
 10
1032.1570654461
 20
-1091.7615882763
 10
1033.6827682509
 20
-1095.728190519
 10
1035.7615155381
 20
-1099.447795753
 10
1038.3508580869
 20
-1102.84444749
 10
1041.3979200262
 20
-1105.8487841388
 10
1044.8404785907
 20
-1108.3994554092
 10
1048.6082347452
 20
-1110.4443751198
  0
LWPOLYLINE
  5
64
330
1F
100
AcDbEntity
  8
0
  6
Continuous
 62
     7
100
AcDbPolyline
 90
       11
 70
   128
 43
0.0
 10
1049.2038137857
 20
-1186.6662843748
 10
1057.4526009056
 20
-1181.8036545673
 10
1064.3423066144
 20
-1175.2008712714
 10
1069.513717053
 20
-1167.2021888528
 10
1072.6972064378
 20
-1158.2246407383
 10
1073.7267947462
 20
-1148.7362962242
 10
1072.5488015449
 20
-1139.2318563899
 10
1069.2246447667
 20
-1130.2068614888
 10
1063.9276385177
 20
-1122.1318545868
 10
1056.9339568663
 20
-1115.4278484985
 10
1048.6082347452
 20
-1110.4443751198
  0
LWPOLYLINE
  5
65
330
1F
100
AcDbEntity
  8
0
  6
Continuous
 62
     7
100
AcDbPolyline
 90
        9
 70
   128
 43
0.0
 10
1049.2038137857
 20
-1186.6662843748
 10
1045.4675871211
 20
-1188.656493079
 10
1042.0644991853
 20
-1191.1572532264
 10
1039.0640430004
 20
-1194.1174978496
 10
1036.5274896155
 20
-1197.4767770429
 10
1034.5066369164
 20
-1201.1664923842
 10
1033.0427518829
 20
-1205.1112977541
 10
1032.1657278933
 20
-1209.2306379476
 10
1031.8934742842
 20
-1213.4403936576
  0
LWPOLYLINE
  5
66
330
1F
100
AcDbEntity
  8
0
  6
Continuous
 62
     7
100
AcDbPolyline
 90
        9
 70
   128
 43
0.0
 10
1029.5328806668
 20
-911.3327971297
 10
1029.8709570142
 20
-915.5470027121
 10
1030.8124596038
 20
-919.6796016539
 10
1032.3381624086
 20
-923.6462038967
 10
1034.4169096958
 20
-927.3658091307
 10
1037.0062522446
 20
-930.7624608676
 10
1040.053314184
 20
-933.7667975165
 10
1043.4958727485
 20
-936.3174687868
 10
1047.2636289029
 20
-938.3623884975
  0
LWPOLYLINE
  5
67
330
1F
100
AcDbEntity
  8
0
  6
Continuous
 62
     7
100
AcDbPolyline
 90
       11
 70
   128
 43
0.0
 10
1047.8592079435
 20
-1014.5842977525
 10
1056.1079950633
 20
-1009.7216679449
 10
1062.9977007722
 20
-1003.118884649
 10
1068.1691112108
 20
-995.1202022305
 10
1071.3526005955
 20
-986.1426541159
 10
1072.382188904
 20
-976.6543096018
 10
1071.2041957026
 20
-967.1498697676
 10
1067.8800389245
 20
-958.1248748664
 10
1062.5830326754
 20
-950.0498679644
 10
1055.5893510241
 20
-943.3458618761
 10
1047.2636289029
 20
-938.3623884975
  0
LWPOLYLINE
  5
68
330
1F
100
AcDbEntity
  8
0
  6
Continuous
 62
     7
100
AcDbPolyline
 90
        9
 70
   128
 43
0.0
 10
1047.8592079435
 20
-1014.5842977525
 10
1044.1229812788
 20
-1016.5745064567
 10
1040.719893343
 20
-1019.075266604
 10
1037.7194371582
 20
-1022.0355112272
 10
1035.1828837733
 20
-1025.3947904205
 10
1033.1620310742
 20
-1029.0845057618
 10
1031.6981460407
 20
-1033.0293111318
 10
1030.8211220511
 20
-1037.1486513252
 10
1030.5488684419
 20
-1041.3584070353
  0
LWPOLYLINE
  5
69
330
1F
100
AcDbEntity
  8
0
  6
Continuous
 62
     7
100
AcDbPolyline
 90
        9
 70
   128
 43
0.0
 10
1022.3733428272
 20
-233.9905168188
 10
1022.7114191746
 20
-238.2047224012
 10
1023.6529217642
 20
-242.337321343
 10
1025.178624569
 20
-246.3039235858
 10
1027.2573718562
 20
-250.0235288198
 10
1029.846714405
 20
-253.4201805568
 10
1032.8937763443
 20
-256.4245172056
 10
1036.3363349088
 20
-258.9751884759
 10
1040.1040910633
 20
-261.0201081866
  0
LWPOLYLINE
  5
6A
330
1F
100
AcDbEntity
  8
0
  6
Continuous
 62
     7
100
AcDbPolyline
 90
       11
 70
   128
 43
0.0
 10
1040.6996701038
 20
-337.2420174416
 10
1048.9484572237
 20
-332.3793876341
 10
1055.8381629325
 20
-325.7766043381
 10
1061.0095733711
 20
-317.7779219196
 10
1064.1930627559
 20
-308.800373805
 10
1065.2226510643
 20
-299.3120292909
 10
1064.044657863
 20
-289.8075894567
 10
1060.7205010848
 20
-280.7825945556
 10
1055.4234948358
 20
-272.7075876535
 10
1048.4298131844
 20
-266.0035815652
 10
1040.1040910633
 20
-261.0201081866
  0
LWPOLYLINE
  5
6B
330
1F
100
AcDbEntity
  8
0
  6
Continuous
 62
     7
100
AcDbPolyline
 90
        9
 70
   128
 43
0.0
 10
1040.6996701038
 20
-337.2420174416
 10
1036.9634434392
 20
-339.2322261458
 10
1033.5603555034
 20
-341.7329862931
 10
1030.5598993185
 20
-344.6932309163
 10
1028.0233459336
 20
-348.0525101097
 10
1026.0024932345
 20
-351.7422254509
 10
1024.538608201
 20
-355.6870308209
 10
1023.6615842114
 20
-359.8063710144
 10
1023.3893306023
 20
-364.0161267244
  0
LWPOLYLINE
  5
6C
330
1F
100
AcDbEntity
  8
0
  6
Continuous
 62
     7
100
AcDbPolyline
 90
        9
 70
   128
 43
0.0
 10
1021.0287369849
 20
-61.9085301964
 10
1021.3668133323
 20
-66.1227357789
 10
1022.3083159219
 20
-70.2553347207
 10
1023.8340187267
 20
-74.2219369634
 10
1025.9127660139
 20
-77.9415421974
 10
1028.5021085627
 20
-81.3381939344
 10
1031.5491705021
 20
-84.3425305832
 10
1034.9917290665
 20
-86.8932018536
 10
1038.759485221
 20
-88.9381215642
  0
LWPOLYLINE
  5
6D
330
1F
100
AcDbEntity
  8
0
  6
Continuous
 62
     7
100
AcDbPolyline
 90
       11
 70
   128
 43
0.0
 10
1039.3550642616
 20
-165.1600308192
 10
1047.6038513814
 20
-160.2974010117
 10
1054.4935570903
 20
-153.6946177158
 10
1059.6649675289
 20
-145.6959352972
 10
1062.8484569136
 20
-136.7183871826
 10
1063.8780452221
 20
-127.2300426686
 10
1062.7000520207
 20
-117.7256028343
 10
1059.3758952426
 20
-108.7006079332
 10
1054.0788889935
 20
-100.6256010312
 10
1047.0852073422
 20
-93.9215949429
 10
1038.759485221
 20
-88.9381215642
  0
LWPOLYLINE
  5
6E
330
1F
100
AcDbEntity
  8
0
  6
Continuous
 62
     7
100
AcDbPolyline
 90
        9
 70
   128
 43
0.0
 10
1039.3550642616
 20
-165.1600308192
 10
1035.6188375969
 20
-167.1502395234
 10
1032.2157496611
 20
-169.6509996708
 10
1029.2152934763
 20
-172.611244294
 10
1026.6787400914
 20
-175.9705234873
 10
1024.6578873923
 20
-179.6602388286
 10
1023.1940023588
 20
-183.6050441985
 10
1022.3169783691
 20
-187.724384392
 10
1022.04472476
 20
-191.934140102
  0
LWPOLYLINE
  5
6F
330
1F
100
AcDbEntity
  8
0
  6
Continuous
 62
     7
100
AcDbPolyline
 90
        9
 70
   128
 43
0.0
 10
1027.2382722251
 20
-667.9573093401
 10
1027.5763485725
 20
-672.1715149226
 10
1028.517851162
 20
-676.3041138644
 10
1030.0435539668
 20
-680.2707161071
 10
1032.122301254
 20
-683.9903213411
 10
1034.7116438028
 20
-687.3869730781
 10
1037.7587057422
 20
-690.3913097269
 10
1041.2012643067
 20
-692.9419809973
 10
1044.9690204611
 20
-694.9869007079
  0
LWPOLYLINE
  5
70
330
1F
100
AcDbEntity
  8
0
  6
Continuous
 62
     7
100
AcDbPolyline
 90
       11
 70
   128
 43
0.0
 10
1045.5645995017
 20
-771.2088099629
 10
1053.8133866215
 20
-766.3461801554
 10
1060.7030923304
 20
-759.7433968595
 10
1065.874502769
 20
-751.7447144409
 10
1069.0579921537
 20
-742.7671663263
 10
1070.0875804622
 20
-733.2788218123
 10
1068.9095872608
 20
-723.774381978
 10
1065.5854304827
 20
-714.7493870769
 10
1060.2884242336
 20
-706.6743801749
 10
1053.2947425823
 20
-699.9703740866
 10
1044.9690204611
 20
-694.9869007079
  0
LWPOLYLINE
  5
71
330
1F
100
AcDbEntity
  8
0
  6
Continuous
 62
     7
100
AcDbPolyline
 90
        9
 70
   128
 43
0.0
 10
1045.5645995017
 20
-771.2088099629
 10
1041.828372837
 20
-773.1990186671
 10
1038.4252849012
 20
-775.6997788145
 10
1035.4248287164
 20
-778.6600234376
 10
1032.8882753315
 20
-782.019302631
 10
1030.8674226324
 20
-785.7090179723
 10
1029.4035375989
 20
-789.6538233422
 10
1028.5265136093
 20
-793.7731635357
 10
1028.2542600001
 20
-797.9829192457
  0
LWPOLYLINE
  5
72
330
1F
100
AcDbEntity
  8
0
  6
Continuous
 62
     7
100
AcDbPolyline
 90
        9
 70
   128
 43
0.0
 10
1025.8936663828
 20
-495.8753227178
 10
1026.2317427302
 20
-500.0895283002
 10
1027.1732453198
 20
-504.222127242
 10
1028.6989481246
 20
-508.1887294848
 10
1030.7776954118
 20
-511.9083347188
 10
1033.3670379606
 20
-515.3049864557
 10
1036.4140999
 20
-518.3093231046
 10
1039.8566584644
 20
-520.8599943749
 10
1043.6244146189
 20
-522.9049140856
  0
LWPOLYLINE
  5
73
330
1F
100
AcDbEntity
  8
0
  6
Continuous
 62
     7
100
AcDbPolyline
 90
       11
 70
   128
 43
0.0
 10
1044.2199936594
 20
-599.1268233406
 10
1052.4687807793
 20
-594.264193533
 10
1059.3584864881
 20
-587.6614102371
 10
1064.5298969268
 20
-579.6627278186
 10
1067.7133863115
 20
-570.685179704
 10
1068.74297462
 20
-561.1968351899
 10
1067.5649814186
 20
-551.6923953556
 10
1064.2408246404
 20
-542.6674004545
 10
1058.9438183914
 20
-534.5923935525
 10
1051.95013674
 20
-527.8883874642
 10
1043.6244146189
 20
-522.9049140856
  0
LWPOLYLINE
  5
74
330
1F
100
AcDbEntity
  8
0
  6
Continuous
 62
     7
100
AcDbPolyline
 90
        9
 70
   128
 43
0.0
 10
1044.2199936594
 20
-599.1268233406
 10
1040.4837669948
 20
-601.1170320448
 10
1037.080679059
 20
-603.6177921921
 10
1034.0802228741
 20
-606.5780368153
 10
1031.5436694892
 20
-609.9373160086
 10
1029.5228167901
 20
-613.6270313499
 10
1028.0589317566
 20
-617.5718367198
 10
1027.181907767
 20
-621.6911769133
 10
1026.9096541579
 20
-625.9009326234
  0
LWPOLYLINE
  5
75
330
1F
100
AcDbEntity
  8
0
  6
Continuous
 62
     7
100
AcDbPolyline
 90
       19
 70
   128
 43
0.0
 10
107.6488494458
 20
-1443.6337504629
 10
104.8582605524
 20
-1438.2796020782
 10
100.3980162363
 20
-1434.1644589001
 10
94.8060877883
 20
-1431.7846679288
 10
88.7569443073
 20
-1431.4272670775
 10
82.9802017729
 20
-1433.1353641636
 10
78.1726205904
 20
-1436.7029374696
 10
74.9140660028
 20
-1441.699685003
 10
73.5975677844
 20
-1447.5229252672
 10
74.3819150499
 20
-1453.4702895444
 10
77.1725039433
 20
-1458.8244379291
 10
81.6327482594
 20
-1462.9395811073
 10
87.2246767074
 20
-1465.3193720785
 10
93.2738201884
 20
-1465.6767729298
 10
99.0505627228
 20
-1463.9686758437
 10
103.8581439053
 20
-1460.4011025378
 10
107.1166984929
 20
-1455.4043550043
 10
108.4331967113
 20
-1449.5811147401
 10
107.6488494458
 20
-1443.6337504629
  0
LWPOLYLINE
  5
76
330
1F
100
AcDbEntity
  8
0
  6
Continuous
 62
     7
100
AcDbPolyline
 90
       19
 70
   128
 43
0.0
 10
167.4248226452
 20
-1444.0695728431
 10
164.6342337518
 20
-1438.7154244585
 10
160.1739894358
 20
-1434.6002812803
 10
154.5820609878
 20
-1432.2204903091
 10
148.5329175068
 20
-1431.8630894578
 10
142.7561749724
 20
-1433.5711865438
 10
137.9485937899
 20
-1437.1387598498
 10
134.6900392022
 20
-1442.1355073832
 10
133.3735409839
 20
-1447.9587476474
 10
134.1578882494
 20
-1453.9061119247
 10
136.9484771428
 20
-1459.2602603094
 10
141.4087214588
 20
-1463.3754034875
 10
147.0006499068
 20
-1465.7551944588
 10
153.0497933878
 20
-1466.11259531
 10
158.8265359222
 20
-1464.404498224
 10
163.6341171047
 20
-1460.836924918
 10
166.8926716924
 20
-1455.8401773846
 10
168.2091699107
 20
-1450.0169371204
 10
167.4248226452
 20
-1444.0695728431
  0
LWPOLYLINE
  5
77
330
1F
100
AcDbEntity
  8
0
  6
Continuous
 62
     7
100
AcDbPolyline
 90
       19
 70
   128
 43
0.0
 10
227.2007958447
 20
-1444.5053952234
 10
224.4102069513
 20
-1439.1512468387
 10
219.9499626352
 20
-1435.0361036606
 10
214.3580341872
 20
-1432.6563126893
 10
208.3088907062
 20
-1432.298911838
 10
202.5321481718
 20
-1434.0070089241
 10
197.7245669893
 20
-1437.5745822301
 10
194.4660124017
 20
-1442.5713297635
 10
193.1495141833
 20
-1448.3945700277
 10
193.9338614488
 20
-1454.3419343049
 10
196.7244503422
 20
-1459.6960826896
 10
201.1846946582
 20
-1463.8112258678
 10
206.7766231062
 20
-1466.191016839
 10
212.8257665873
 20
-1466.5484176903
 10
218.6025091217
 20
-1464.8403206042
 10
223.4100903042
 20
-1461.2727472982
 10
226.6686448918
 20
-1456.2759997648
 10
227.9851431102
 20
-1450.4527595006
 10
227.2007958447
 20
-1444.5053952234
  0
LWPOLYLINE
  5
78
330
1F
100
AcDbEntity
  8
0
  6
Continuous
 62
     7
100
AcDbPolyline
 90
       19
 70
   128
 43
0.0
 10
286.9767690441
 20
-1444.9412176036
 10
284.1861801507
 20
-1439.5870692189
 10
279.7259358346
 20
-1435.4719260408
 10
274.1340073867
 20
-1433.0921350695
 10
268.0848639056
 20
-1432.7347342183
 10
262.3081213712
 20
-1434.4428313043
 10
257.5005401887
 20
-1438.0104046103
 10
254.2419856011
 20
-1443.0071521437
 10
252.9254873827
 20
-1448.8303924079
 10
253.7098346482
 20
-1454.7777566852
 10
256.5004235416
 20
-1460.1319050699
 10
260.9606678577
 20
-1464.247048248
 10
266.5525963057
 20
-1466.6268392193
 10
272.6017397867
 20
-1466.9842400705
 10
278.3784823211
 20
-1465.2761429845
 10
283.1860635036
 20
-1461.7085696785
 10
286.4446180912
 20
-1456.7118221451
 10
287.7611163096
 20
-1450.8885818809
 10
286.9767690441
 20
-1444.9412176036
  0
LWPOLYLINE
  5
79
330
1F
100
AcDbEntity
  8
0
  6
Continuous
 62
     7
100
AcDbPolyline
 90
       19
 70
   128
 43
0.0
 10
346.7527422435
 20
-1445.3770399839
 10
343.9621533501
 20
-1440.0228915992
 10
339.5019090341
 20
-1435.907748421
 10
333.9099805861
 20
-1433.5279574498
 10
327.8608371051
 20
-1433.1705565985
 10
322.0840945707
 20
-1434.8786536846
 10
317.2765133882
 20
-1438.4462269905
 10
314.0179588005
 20
-1443.442974524
 10
312.7014605822
 20
-1449.2662147882
 10
313.4858078477
 20
-1455.2135790654
 10
316.2763967411
 20
-1460.5677274501
 10
320.7366410571
 20
-1464.6828706282
 10
326.3285695051
 20
-1467.0626615995
 10
332.3777129861
 20
-1467.4200624508
 10
338.1544555205
 20
-1465.7119653647
 10
342.962036703
 20
-1462.1443920587
 10
346.2205912907
 20
-1457.1476445253
 10
347.537089509
 20
-1451.3244042611
 10
346.7527422435
 20
-1445.3770399839
  0
LWPOLYLINE
  5
7A
330
1F
100
AcDbEntity
  8
0
  6
Continuous
 62
     7
100
AcDbPolyline
 90
       19
 70
   128
 43
0.0
 10
108.1106488192
 20
-1502.7346044832
 10
105.3200599258
 20
-1497.3804560985
 10
100.8598156098
 20
-1493.2653129203
 10
95.2678871618
 20
-1490.8855219491
 10
89.2187436807
 20
-1490.5281210978
 10
83.4420011463
 20
-1492.2362181839
 10
78.6344199638
 20
-1495.8037914899
 10
75.3758653762
 20
-1500.8005390233
 10
74.0593671578
 20
-1506.6237792875
 10
74.8437144233
 20
-1512.5711435647
 10
77.6343033167
 20
-1517.9252919494
 10
82.0945476328
 20
-1522.0404351275
 10
87.6864760808
 20
-1524.4202260988
 10
93.7356195618
 20
-1524.7776269501
 10
99.5123620962
 20
-1523.069529864
 10
104.3199432787
 20
-1519.501956558
 10
107.5784978663
 20
-1514.5052090246
 10
108.8949960847
 20
-1508.6819687604
 10
108.1106488192
 20
-1502.7346044832
  0
LWPOLYLINE
  5
7B
330
1F
100
AcDbEntity
  8
0
  6
Continuous
 62
     7
100
AcDbPolyline
 90
       19
 70
   128
 43
0.0
 10
167.8866220186
 20
-1503.1704268634
 10
165.0960331252
 20
-1497.8162784787
 10
160.6357888092
 20
-1493.7011353006
 10
155.0438603612
 20
-1491.3213443293
 10
148.9947168802
 20
-1490.9639434781
 10
143.2179743458
 20
-1492.6720405641
 10
138.4103931633
 20
-1496.2396138701
 10
135.1518385756
 20
-1501.2363614035
 10
133.8353403573
 20
-1507.0596016677
 10
134.6196876228
 20
-1513.006965945
 10
137.4102765162
 20
-1518.3611143296
 10
141.8705208322
 20
-1522.4762575078
 10
147.4624492802
 20
-1524.856048479
 10
153.5115927612
 20
-1525.2134493303
 10
159.2883352957
 20
-1523.5053522443
 10
164.0959164781
 20
-1519.9377789383
 10
167.3544710658
 20
-1514.9410314048
 10
168.6709692841
 20
-1509.1177911407
 10
167.8866220186
 20
-1503.1704268634
  0
LWPOLYLINE
  5
7C
330
1F
100
AcDbEntity
  8
0
  6
Continuous
 62
     7
100
AcDbPolyline
 90
       19
 70
   128
 43
0.0
 10
227.6625952181
 20
-1503.6062492437
 10
224.8720063247
 20
-1498.252100859
 10
220.4117620086
 20
-1494.1369576808
 10
214.8198335606
 20
-1491.7571667096
 10
208.7706900796
 20
-1491.3997658583
 10
202.9939475452
 20
-1493.1078629444
 10
198.1863663627
 20
-1496.6754362503
 10
194.9278117751
 20
-1501.6721837838
 10
193.6113135567
 20
-1507.495424048
 10
194.3956608222
 20
-1513.4427883252
 10
197.1862497156
 20
-1518.7969367099
 10
201.6464940317
 20
-1522.912079888
 10
207.2384224797
 20
-1525.2918708593
 10
213.2875659607
 20
-1525.6492717106
 10
219.0643084951
 20
-1523.9411746245
 10
223.8718896776
 20
-1520.3736013185
 10
227.1304442652
 20
-1515.3768537851
 10
228.4469424836
 20
-1509.5536135209
 10
227.6625952181
 20
-1503.6062492437
  0
LWPOLYLINE
  5
7D
330
1F
100
AcDbEntity
  8
0
  6
Continuous
 62
     7
100
AcDbPolyline
 90
       19
 70
   128
 43
0.0
 10
287.4385684175
 20
-1504.0420716239
 10
284.6479795241
 20
-1498.6879232392
 10
280.1877352081
 20
-1494.5727800611
 10
274.5958067601
 20
-1492.1929890898
 10
268.546663279
 20
-1491.8355882385
 10
262.7699207446
 20
-1493.5436853246
 10
257.9623395621
 20
-1497.1112586306
 10
254.7037849745
 20
-1502.108006164
 10
253.3872867562
 20
-1507.9312464282
 10
254.1716340217
 20
-1513.8786107054
 10
256.962222915
 20
-1519.2327590901
 10
261.4224672311
 20
-1523.3479022683
 10
267.0143956791
 20
-1525.7276932395
 10
273.0635391601
 20
-1526.0850940908
 10
278.8402816945
 20
-1524.3769970047
 10
283.647862877
 20
-1520.8094236988
 10
286.9064174646
 20
-1515.8126761653
 10
288.222915683
 20
-1509.9894359011
 10
287.4385684175
 20
-1504.0420716239
  0
LWPOLYLINE
  5
7E
330
1F
100
AcDbEntity
  8
0
  6
Continuous
 62
     7
100
AcDbPolyline
 90
       19
 70
   128
 43
0.0
 10
347.2145416169
 20
-1504.4778940041
 10
344.4239527235
 20
-1499.1237456194
 10
339.9637084075
 20
-1495.0086024413
 10
334.3717799595
 20
-1492.62881147
 10
328.3226364785
 20
-1492.2714106188
 10
322.5458939441
 20
-1493.9795077048
 10
317.7383127616
 20
-1497.5470810108
 10
314.4797581739
 20
-1502.5438285442
 10
313.1632599556
 20
-1508.3670688084
 10
313.9476072211
 20
-1514.3144330857
 10
316.7381961145
 20
-1519.6685814704
 10
321.1984404305
 20
-1523.7837246485
 10
326.7903688785
 20
-1526.1635156198
 10
332.8395123596
 20
-1526.520916471
 10
338.616254894
 20
-1524.812819385
 10
343.4238360765
 20
-1521.245246079
 10
346.6823906641
 20
-1516.2484985456
 10
347.9988888824
 20
-1510.4252582814
 10
347.2145416169
 20
-1504.4778940041
  0
LWPOLYLINE
  5
7F
330
1F
100
AcDbEntity
  8
0
  6
Continuous
 62
     7
100
AcDbPolyline
 90
       19
 70
   128
 43
0.0
 10
108.5724481926
 20
-1561.8354585034
 10
105.7818592992
 20
-1556.4813101188
 10
101.3216149832
 20
-1552.3661669406
 10
95.7296865352
 20
-1549.9863759694
 10
89.6805430541
 20
-1549.6289751181
 10
83.9038005197
 20
-1551.3370722042
 10
79.0962193372
 20
-1554.9046455101
 10
75.8376647496
 20
-1559.9013930436
 10
74.5211665313
 20
-1565.7246333078
 10
75.3055137968
 20
-1571.671997585
 10
78.0961026902
 20
-1577.0261459697
 10
82.5563470062
 20
-1581.1412891478
 10
88.1482754542
 20
-1583.5210801191
 10
94.1974189352
 20
-1583.8784809703
 10
99.9741614696
 20
-1582.1703838843
 10
104.7817426521
 20
-1578.6028105783
 10
108.0402972398
 20
-1573.6060630449
 10
109.3567954581
 20
-1567.7828227807
 10
108.5724481926
 20
-1561.8354585034
  0
LWPOLYLINE
  5
80
330
1F
100
AcDbEntity
  8
0
  6
Continuous
 62
     7
100
AcDbPolyline
 90
       19
 70
   128
 43
0.0
 10
168.348421392
 20
-1562.2712808837
 10
165.5578324987
 20
-1556.917132499
 10
161.0975881826
 20
-1552.8019893209
 10
155.5056597346
 20
-1550.4221983496
 10
149.4565162536
 20
-1550.0647974983
 10
143.6797737192
 20
-1551.7728945844
 10
138.8721925367
 20
-1555.3404678904
 10
135.6136379491
 20
-1560.3372154238
 10
134.2971397307
 20
-1566.160455688
 10
135.0814869962
 20
-1572.1078199652
 10
137.8720758896
 20
-1577.4619683499
 10
142.3323202056
 20
-1581.5771115281
 10
147.9242486536
 20
-1583.9569024993
 10
153.9733921347
 20
-1584.3143033506
 10
159.7501346691
 20
-1582.6062062645
 10
164.5577158516
 20
-1579.0386329585
 10
167.8162704392
 20
-1574.0418854251
 10
169.1327686575
 20
-1568.2186451609
 10
168.348421392
 20
-1562.2712808837
  0
LWPOLYLINE
  5
81
330
1F
100
AcDbEntity
  8
0
  6
Continuous
 62
     7
100
AcDbPolyline
 90
       19
 70
   128
 43
0.0
 10
228.1243945915
 20
-1562.7071032639
 10
225.3338056981
 20
-1557.3529548792
 10
220.873561382
 20
-1553.2378117011
 10
215.281632934
 20
-1550.8580207298
 10
209.232489453
 20
-1550.5006198786
 10
203.4557469186
 20
-1552.2087169646
 10
198.6481657361
 20
-1555.7762902706
 10
195.3896111485
 20
-1560.773037804
 10
194.0731129301
 20
-1566.5962780682
 10
194.8574601956
 20
-1572.5436423455
 10
197.648049089
 20
-1577.8977907302
 10
202.1082934051
 20
-1582.0129339083
 10
207.7002218531
 20
-1584.3927248796
 10
213.7493653341
 20
-1584.7501257308
 10
219.5261078685
 20
-1583.0420286448
 10
224.333689051
 20
-1579.4744553388
 10
227.5922436386
 20
-1574.4777078054
 10
228.908741857
 20
-1568.6544675412
 10
228.1243945915
 20
-1562.7071032639
  0
LWPOLYLINE
  5
82
330
1F
100
AcDbEntity
  8
0
  6
Continuous
 62
     7
100
AcDbPolyline
 90
       19
 70
   128
 43
0.0
 10
287.9003677909
 20
-1563.1429256442
 10
285.1097788975
 20
-1557.7887772595
 10
280.6495345815
 20
-1553.6736340813
 10
275.0576061335
 20
-1551.2938431101
 10
269.0084626525
 20
-1550.9364422588
 10
263.231720118
 20
-1552.6445393449
 10
258.4241389356
 20
-1556.2121126509
 10
255.1655843479
 20
-1561.2088601843
 10
253.8490861296
 20
-1567.0321004485
 10
254.6334333951
 20
-1572.9794647257
 10
257.4240222885
 20
-1578.3336131104
 10
261.8842666045
 20
-1582.4487562885
 10
267.4761950525
 20
-1584.8285472598
 10
273.5253385335
 20
-1585.1859481111
 10
279.3020810679
 20
-1583.477851025
 10
284.1096622504
 20
-1579.910277719
 10
287.3682168381
 20
-1574.9135301856
 10
288.6847150564
 20
-1569.0902899214
 10
287.9003677909
 20
-1563.1429256442
  0
LWPOLYLINE
  5
83
330
1F
100
AcDbEntity
  8
0
  6
Continuous
 62
     7
100
AcDbPolyline
 90
       19
 70
   128
 43
0.0
 10
347.6763409904
 20
-1563.5787480244
 10
344.885752097
 20
-1558.2245996397
 10
340.4255077809
 20
-1554.1094564616
 10
334.8335793329
 20
-1551.7296654903
 10
328.7844358519
 20
-1551.3722646391
 10
323.0076933175
 20
-1553.0803617251
 10
318.200112135
 20
-1556.6479350311
 10
314.9415575474
 20
-1561.6446825645
 10
313.625059329
 20
-1567.4679228287
 10
314.4094065945
 20
-1573.4152871059
 10
317.1999954879
 20
-1578.7694354906
 10
321.6602398039
 20
-1582.8845786688
 10
327.2521682519
 20
-1585.26436964
 10
333.301311733
 20
-1585.6217704913
 10
339.0780542674
 20
-1583.9136734052
 10
343.8856354499
 20
-1580.3461000993
 10
347.1441900375
 20
-1575.3493525658
 10
348.4606882559
 20
-1569.5261123016
 10
347.6763409904
 20
-1563.5787480244
  0
LWPOLYLINE
  5
84
330
1F
100
AcDbEntity
  8
0
  6
Continuous
 62
     7
100
AcDbPolyline
 90
       29
 70
   128
 43
0.0
 10
547.8513810504
 20
-1489.6117293986
 10
544.240006831
 20
-1481.4903254812
 10
538.9032728505
 20
-1474.3398714036
 10
532.108785235
 20
-1468.5189207908
 10
524.1972479647
 20
-1464.3193604128
 10
515.5653785541
 20
-1461.9517737628
 10
506.6460149791
 20
-1461.5348815215
 10
497.8864113732
 20
-1463.0895884067
 10
489.7258108382
 20
-1466.5379349233
 10
482.5734199606
 20
-1471.707006578
 10
476.7878894849
 20
-1478.3376045338
 10
472.6593300672
 20
-1486.0972429222
 10
470.3947649163
 20
-1494.596821073
 10
470.1077487847
 20
-1503.4101346466
 10
471.8126738598
 20
-1512.0952472992
 10
475.4240480792
 20
-1520.2166512166
 10
480.7607820597
 20
-1527.3671052942
 10
487.5552696752
 20
-1533.188055907
 10
495.4668069455
 20
-1537.387616285
 10
504.0986763561
 20
-1539.7552029351
 10
513.0180399311
 20
-1540.1720951764
 10
521.777643537
 20
-1538.6173882911
 10
529.938244072
 20
-1535.1690417745
 10
537.0906349496
 20
-1529.9999701198
 10
542.8761654253
 20
-1523.369372164
 10
547.0047248429
 20
-1515.6097337756
 10
549.2692899939
 20
-1507.1101556248
 10
549.5563061255
 20
-1498.2968420512
 10
547.8513810504
 20
-1489.6117293986
  0
LWPOLYLINE
  5
85
330
1F
100
AcDbEntity
  8
0
  6
Continuous
 62
     7
100
AcDbPolyline
 90
       29
 70
   128
 43
0.0
 10
747.1046250485
 20
-1491.0644706661
 10
743.4932508291
 20
-1482.9430667487
 10
738.1565168486
 20
-1475.7926126711
 10
731.3620292331
 20
-1469.9716620583
 10
723.4504919628
 20
-1465.7721016803
 10
714.8186225522
 20
-1463.4045150302
 10
705.8992589772
 20
-1462.9876227889
 10
697.1396553713
 20
-1464.5423296742
 10
688.9790548363
 20
-1467.9906761908
 10
681.8266639587
 20
-1473.1597478455
 10
676.041133483
 20
-1479.7903458013
 10
671.9125740654
 20
-1487.5499841897
 10
669.6480089144
 20
-1496.0495623405
 10
669.3609927828
 20
-1504.8628759141
 10
671.0659178579
 20
-1513.5479885667
 10
674.6772920773
 20
-1521.6693924841
 10
680.0140260578
 20
-1528.8198465617
 10
686.8085136733
 20
-1534.6407971745
 10
694.7200509436
 20
-1538.8403575525
 10
703.3519203542
 20
-1541.2079442025
 10
712.2712839292
 20
-1541.6248364438
 10
721.0308875351
 20
-1540.0701295586
 10
729.1914880701
 20
-1536.621783042
 10
736.3438789477
 20
-1531.4527113873
 10
742.1294094234
 20
-1524.8221134315
 10
746.2579688411
 20
-1517.0624750431
 10
748.522533992
 20
-1508.5628968923
 10
748.8095501236
 20
-1499.7495833187
 10
747.1046250485
 20
-1491.0644706661
  0
LINE
  5
86
330
1F
100
AcDbEntity
  8
0
  6
Continuous
 62
     7
100
AcDbLine
 10
2.3089968671
 20
-295.5042701014
 30
0.0
 11
1008.5378790576
 21
-302.8406135021
 31
0.0
  0
LINE
  5
87
330
1F
100
AcDbEntity
  8
0
  6
Continuous
 62
     7
100
AcDbLine
 10
0.0
 20
0.0
 30
0.0
 11
1214.6477754125
 21
-8.8559107665
 31
0.0
  0
LINE
  5
88
330
1F
100
AcDbEntity
  8
0
  6
Continuous
 62
     7
100
AcDbLine
 10
0.0
 20
0.0
 30
0.0
 11
18.7675265355
 21
-2401.8587073839
 31
0.0
  0
LINE
  5
89
330
1F
100
AcDbEntity
  8
0
  6
Continuous
 62
     7
100
AcDbLine
 10
18.7675265355
 20
-2401.8587073839
 30
0.0
 11
1233.415301948
 21
-2410.7146181504
 31
0.0
  0
LINE
  5
8A
330
1F
100
AcDbEntity
  8
0
  6
Continuous
 62
     7
100
AcDbLine
 10
1214.6477754125
 20
-8.8559107665
 30
0.0
 11
1233.415301948
 21
-2410.7146181504
 31
0.0
  0
LINE
  5
8B
330
1F
100
AcDbEntity
  8
0
  6
Continuous
 62
     7
100
AcDbLine
 10
1008.5378790576
 20
-302.8406135021
 30
0.0
 11
1006.2288821905
 21
-7.3363434007
 31
0.0
  0
LINE
  5
8C
330
1F
100
AcDbEntity
  8
0
  6
Continuous
 62
     7
100
AcDbLine
 10
1008.5378790576
 20
-302.8406135021
 30
0.0
 11
1010.8468759246
 21
-598.3448836034
 31
0.0
  0
LINE
  5
8D
330
1F
100
AcDbEntity
  8
0
  6
Continuous
 62
     7
100
AcDbLine
 10
1010.8468759246
 20
-598.3448836034
 30
0.0
 11
4.6179937341
 21
-591.0085402027
 31
0.0
  0
LINE
  5
8E
330
1F
100
AcDbEntity
  8
0
  6
Continuous
 62
     7
100
AcDbLine
 10
7.7736227858
 20
-994.8643760079
 30
0.0
 11
1014.0025049763
 21
-1002.2007194086
 31
0.0
  0
LINE
  5
8F
330
1F
100
AcDbEntity
  8
0
  6
Continuous
 62
     7
100
AcDbLine
 10
1014.0025049763
 20
-1002.2007194086
 30
0.0
 11
1010.8468759246
 21
-598.3448836034
 31
0.0
  0
LINE
  5
90
330
1F
100
AcDbEntity
  8
0
  6
Continuous
 62
     7
100
AcDbLine
 10
10.9292518374
 20
-1398.7202118131
 30
0.0
 11
1017.1581340279
 21
-1406.0565552138
 31
0.0
  0
LINE
  5
91
330
1F
100
AcDbEntity
  8
0
  6
Continuous
 62
     7
100
AcDbLine
 10
1017.1581340279
 20
-1406.0565552138
 30
0.0
 11
1014.0025049763
 21
-1002.2007194086
 31
0.0
  0
LINE
  5
92
330
1F
100
AcDbEntity
  8
0
  6
Continuous
 62
     7
100
AcDbLine
 10
13.2382487045
 20
-1694.2244819145
 30
0.0
 11
411.7447367007
 21
-1697.1299644494
 31
0.0
  0
LINE
  5
93
330
1F
100
AcDbEntity
  8
0
  6
Continuous
 62
     7
100
AcDbLine
 10
411.7447367007
 20
-1697.1299644494
 30
0.0
 11
409.4357398337
 21
-1401.6256943481
 31
0.0
  0
LINE
  5
94
330
1F
100
AcDbEntity
  8
0
  6
Continuous
 62
     7
100
AcDbLine
 10
411.7447367007
 20
-1697.1299644494
 30
0.0
 11
810.251224697
 21
-1700.0354469844
 31
0.0
  0
LINE
  5
95
330
1F
100
AcDbEntity
  8
0
  6
Continuous
 62
     7
100
AcDbLine
 10
810.251224697
 20
-1700.0354469844
 30
0.0
 11
807.9422278299
 21
-1404.531176883
 31
0.0
  0
LINE
  5
96
330
1F
100
AcDbEntity
  8
0
  6
Continuous
 62
     7
100
AcDbLine
 10
1030.5488684419
 20
-1041.3584070353
 30
0.0
 11
1030.8774865091
 21
-1083.414783752
 31
0.0
  0
LINE
  5
97
330
1F
100
AcDbEntity
  8
0
  6
Continuous
 62
     7
100
AcDbLine
 10
1031.8934742842
 20
-1213.4403936576
 30
0.0
 11
1032.2525087202
 21
-1259.3894421279
 31
0.0
  0
LINE
  5
98
330
1F
100
AcDbEntity
  8
0
  6
Continuous
 62
     7
100
AcDbLine
 10
1032.2525087202
 20
-1259.3894421279
 30
0.0
 11
1096.0135467996
 21
-1259.8543193335
 31
0.0
  0
LINE
  5
99
330
1F
100
AcDbEntity
  8
0
  6
Continuous
 62
     7
100
AcDbLine
 10
1096.0135467996
 20
-1259.8543193335
 30
0.0
 11
1092.9348843102
 21
-865.848625865
 31
0.0
  0
LINE
  5
9A
330
1F
100
AcDbEntity
  8
0
  6
Continuous
 62
     7
100
AcDbLine
 10
1092.9348843102
 20
-865.848625865
 30
0.0
 11
1029.1738462308
 21
-865.3837486594
 31
0.0
  0
LINE
  5
9B
330
1F
100
AcDbEntity
  8
0
  6
Continuous
 62
     7
100
AcDbLine
 10
1029.1738462308
 20
-865.3837486594
 30
0.0
 11
1029.5328806668
 21
-911.3327971297
 31
0.0
  0
LINE
  5
9C
330
1F
100
AcDbEntity
  8
0
  6
Continuous
 62
     7
100
AcDbLine
 10
1022.04472476
 20
-191.934140102
 30
0.0
 11
1022.3733428272
 21
-233.9905168188
 31
0.0
  0
LINE
  5
9D
330
1F
100
AcDbEntity
  8
0
  6
Continuous
 62
     7
100
AcDbLine
 10
1023.3893306023
 20
-364.0161267244
 30
0.0
 11
1023.7483650383
 21
-409.9651751947
 31
0.0
  0
LINE
  5
9E
330
1F
100
AcDbEntity
  8
0
  6
Continuous
 62
     7
100
AcDbLine
 10
1023.7483650383
 20
-409.9651751947
 30
0.0
 11
1087.5094031177
 21
-410.4300524002
 31
0.0
  0
LINE
  5
9F
330
1F
100
AcDbEntity
  8
0
  6
Continuous
 62
     7
100
AcDbLine
 10
1087.5094031177
 20
-410.4300524002
 30
0.0
 11
1084.4307406283
 21
-16.4243589318
 31
0.0
  0
LINE
  5
A0
330
1F
100
AcDbEntity
  8
0
  6
Continuous
 62
     7
100
AcDbLine
 10
1084.4307406283
 20
-16.4243589318
 30
0.0
 11
1020.6697025489
 21
-15.9594817262
 31
0.0
  0
LINE
  5
A1
330
1F
100
AcDbEntity
  8
0
  6
Continuous
 62
     7
100
AcDbLine
 10
1020.6697025489
 20
-15.9594817262
 30
0.0
 11
1021.0287369849
 21
-61.9085301964
 31
0.0
  0
LINE
  5
A2
330
1F
100
AcDbEntity
  8
0
  6
Continuous
 62
     7
100
AcDbLine
 10
1026.9096541579
 20
-625.9009326234
 30
0.0
 11
1027.2382722251
 21
-667.9573093401
 31
0.0
  0
LINE
  5
A3
330
1F
100
AcDbEntity
  8
0
  6
Continuous
 62
     7
100
AcDbLine
 10
1028.2542600001
 20
-797.9829192457
 30
0.0
 11
1028.6132944362
 21
-843.931967716
 31
0.0
  0
LINE
  5
A4
330
1F
100
AcDbEntity
  8
0
  6
Continuous
 62
     7
100
AcDbLine
 10
1028.6132944362
 20
-843.931967716
 30
0.0
 11
1092.3743325156
 21
-844.3968449216
 31
0.0
  0
LINE
  5
A5
330
1F
100
AcDbEntity
  8
0
  6
Continuous
 62
     7
100
AcDbLine
 10
1092.3743325156
 20
-844.3968449216
 30
0.0
 11
1089.2956700262
 21
-450.3911514531
 31
0.0
  0
LINE
  5
A6
330
1F
100
AcDbEntity
  8
0
  6
Continuous
 62
     7
100
AcDbLine
 10
1089.2956700262
 20
-450.3911514531
 30
0.0
 11
1025.5346319468
 21
-449.9262742475
 31
0.0
  0
LINE
  5
A7
330
1F
100
AcDbEntity
  8
0
  6
Continuous
 62
     7
100
AcDbLine
 10
1025.5346319468
 20
-449.9262742475
 30
0.0
 11
1025.8936663828
 21
-495.8753227178
 31
0.0
  0
POINT
  5
A8
330
1F
100
AcDbEntity
  8
0
  6
Continuous
 62
     7
100
AcDbPoint
 10
2.3089968671
 20
-295.5042701014
 30
0.0
  0
POINT
  5
A9
330
1F
100
AcDbEntity
  8
0
  6
Continuous
 62
     7
100
AcDbPoint
 10
4.6179937341
 20
-591.0085402027
 30
0.0
  0
POINT
  5
AA
330
1F
100
AcDbEntity
  8
0
  6
Continuous
 62
     7
100
AcDbPoint
 10
7.7736227858
 20
-994.8643760079
 30
0.0
  0
POINT
  5
AB
330
1F
100
AcDbEntity
  8
0
  6
Continuous
 62
     7
100
AcDbPoint
 10
10.9292518374
 20
-1398.7202118131
 30
0.0
  0
POINT
  5
AC
330
1F
100
AcDbEntity
  8
0
  6
Continuous
 62
     7
100
AcDbPoint
 10
1006.2288821905
 20
-7.3363434007
 30
0.0
  0
POINT
  5
AD
330
1F
100
AcDbEntity
  8
0
  6
Continuous
 62
     7
100
AcDbPoint
 10
13.2382487045
 20
-1694.2244819145
 30
0.0
  0
POINT
  5
AE
330
1F
100
AcDbEntity
  8
0
  6
Continuous
 62
     7
100
AcDbPoint
 10
409.4357398337
 20
-1401.6256943481
 30
0.0
  0
POINT
  5
AF
330
1F
100
AcDbEntity
  8
0
  6
Continuous
 62
     7
100
AcDbPoint
 10
807.9422278299
 20
-1404.531176883
 30
0.0
  0
POINT
  5
B0
330
1F
100
AcDbEntity
  8
0
  6
Continuous
 62
     7
100
AcDbPoint
 10
509.8320274551
 20
-1500.8534883489
 30
0.0
  0
ENDSEC
  0
SECTION
  2
OBJECTS
  0
DICTIONARY
  5
C
330
0
100
AcDbDictionary
281
     1
  3
ACAD_GROUP
350
D
  3
ACAD_LAYOUT
350
1A
  3
ACAD_MLINESTYLE
350
17
  3
ACAD_PLOTSETTINGS
350
19
  3
ACAD_PLOTSTYLENAME
350
E
  3
ACAD_SCALELIST
350
47
  3
DWGPROPS
350
B1
  0
DICTIONARY
  5
D
102
{ACAD_REACTORS
330
C
102
}
330
C
100
AcDbDictionary
281
     1
  0
DICTIONARY
  5
1A
102
{ACAD_REACTORS
330
C
102
}
330
C
100
AcDbDictionary
281
     1
  3
Layout1
350
1E
  3
Layout2
350
26
  3
Model
350
22
  0
DICTIONARY
  5
17
102
{ACAD_REACTORS
330
C
102
}
330
C
100
AcDbDictionary
281
     1
  3
Standard
350
18
  0
DICTIONARY
  5
19
102
{ACAD_REACTORS
330
C
102
}
330
C
100
AcDbDictionary
281
     1
  0
ACDBDICTIONARYWDFLT
  5
E
102
{ACAD_REACTORS
330
C
102
}
330
C
100
AcDbDictionary
281
     1
  3
Normal
350
F
100
AcDbDictionaryWithDefault
340
F
  0
DICTIONARY
  5
47
102
{ACAD_REACTORS
330
C
102
}
330
C
100
AcDbDictionary
281
     1
  3
A0
350
48
  3
A1
350
49
  3
A2
350
4A
  3
A3
350
4B
  3
A4
350
4C
  3
A5
350
4D
  3
A6
350
4E
  3
A7
350
4F
  3
A8
350
50
  3
A9
350
51
  3
B0
350
52
  3
B1
350
53
  3
B2
350
54
  3
B3
350
55
  3
B4
350
56
  3
B5
350
57
  3
B6
350
58
  0
XRECORD
  5
B1
102
{ACAD_REACTORS
330
C
102
}
330
C
100
AcDbXrecord
280
     1
  1
DWGPROPS COOKIE
  2

  3

  4

  6

  7

  8
Tawhid
  9

300
=
301
=
302
=
303
=
304
=
305
=
306
=
307
=
308
=
309
=
 40
0.0
 41
2460863.307774121
 42
2460863.308421458
  1

 90
        0
  0
LAYOUT
  5
1E
102
{ACAD_REACTORS
330
1A
102
}
330
1A
100
AcDbPlotSettings
  1

  2
none_device
  4

  6

 40
0.0
 41
0.0
 42
0.0
 43
0.0
 44
0.0
 45
0.0
 46
0.0
 47
0.0
 48
0.0
 49
0.0
140
0.0
141
0.0
142
1.0
143
1.0
 70
   688
 72
     1
 73
     0
 74
     5
  7

 75
    16
147
1.0
148
0.0
149
0.0
100
AcDbLayout
  1
Layout1
 70
     1
 71
     1
 10
0.0
 20
0.0
 11
420.0
 21
297.0
 12
0.0
 22
0.0
 32
0.0
 14
1.0000000000E+20
 24
1.0000000000E+20
 34
1.0000000000E+20
 15
-1.0000000000E+20
 25
-1.0000000000E+20
 35
-1.0000000000E+20
146
0.0
 13
0.0
 23
0.0
 33
0.0
 16
1.0
 26
0.0
 36
0.0
 17
0.0
 27
1.0
 37
0.0
 76
     0
330
1B
  0
LAYOUT
  5
26
102
{ACAD_REACTORS
330
1A
102
}
330
1A
100
AcDbPlotSettings
  1

  2
none_device
  4

  6

 40
0.0
 41
0.0
 42
0.0
 43
0.0
 44
0.0
 45
0.0
 46
0.0
 47
0.0
 48
0.0
 49
0.0
140
0.0
141
0.0
142
1.0
143
1.0
 70
   688
 72
     1
 73
     0
 74
     5
  7

 75
    16
147
1.0
148
0.0
149
0.0
100
AcDbLayout
  1
Layout2
 70
     1
 71
     2
 10
0.0
 20
0.0
 11
0.0
 21
0.0
 12
0.0
 22
0.0
 32
0.0
 14
0.0
 24
0.0
 34
0.0
 15
0.0
 25
0.0
 35
0.0
146
0.0
 13
0.0
 23
0.0
 33
0.0
 16
1.0
 26
0.0
 36
0.0
 17
0.0
 27
1.0
 37
0.0
 76
     0
330
23
  0
LAYOUT
  5
22
102
{ACAD_REACTORS
330
1A
102
}
330
1A
100
AcDbPlotSettings
  1

  2
none_device
  4
ANSI_A_(11.00_x_8.50_Inches)
  6

 40
6.35
 41
19.05
 42
6.35000508
 43
19.05000254
 44
279.4
 45
215.9
 46
78.6708956558
 47
195.77049873
 48
0.0
 49
0.0
140
0.0
141
0.0
142
0.0034906662
143
1.0
 70
  1696
 72
     0
 73
     0
 74
     0
  7

 75
     0
147
0.0179189148
148
-1300.4909072572
149
0.0
100
AcDbLayout
  1
Model
 70
     1
 71
     0
 10
0.0
 20
0.0
 11
420.0
 21
297.0
 12
0.0
 22
0.0
 32
0.0
 14
0.0
 24
-2410.7146181504
 34
0.0
 15
1233.415301948
 25
0.0
 35
0.0
146
0.0
 13
0.0
 23
0.0
 33
0.0
 16
1.0
 26
0.0
 36
0.0
 17
0.0
 27
1.0
 37
0.0
 76
     0
330
1F
331
29
  0
MLINESTYLE
  5
18
102
{ACAD_REACTORS
330
17
102
}
330
17
100
AcDbMlineStyle
  2
Standard
 70
     0
  3

 62
   256
 51
90.0
 52
90.0
 71
     2
 49
0.5
 62
   256
  6
BYLAYER
 49
-0.5
 62
   256
  6
BYLAYER
  0
ACDBPLACEHOLDER
  5
F
102
{ACAD_REACTORS
330
E
102
}
330
E
  0
SCALE
  5
48
102
{ACAD_REACTORS
330
47
102
}
330
47
100
AcDbScale
 70
     0
300
1:1
140
1.0
141
1.0
290
     1
  0
SCALE
  5
49
102
{ACAD_REACTORS
330
47
102
}
330
47
100
AcDbScale
 70
     0
300
1:2
140
1.0
141
2.0
290
     0
  0
SCALE
  5
4A
102
{ACAD_REACTORS
330
47
102
}
330
47
100
AcDbScale
 70
     0
300
1:4
140
1.0
141
4.0
290
     0
  0
SCALE
  5
4B
102
{ACAD_REACTORS
330
47
102
}
330
47
100
AcDbScale
 70
     0
300
1:5
140
1.0
141
5.0
290
     0
  0
SCALE
  5
4C
102
{ACAD_REACTORS
330
47
102
}
330
47
100
AcDbScale
 70
     0
300
1:8
140
1.0
141
8.0
290
     0
  0
SCALE
  5
4D
102
{ACAD_REACTORS
330
47
102
}
330
47
100
AcDbScale
 70
     0
300
1:10
140
1.0
141
10.0
290
     0
  0
SCALE
  5
4E
102
{ACAD_REACTORS
330
47
102
}
330
47
100
AcDbScale
 70
     0
300
1:16
140
1.0
141
16.0
290
     0
  0
SCALE
  5
4F
102
{ACAD_REACTORS
330
47
102
}
330
47
100
AcDbScale
 70
     0
300
1:20
140
1.0
141
20.0
290
     0
  0
SCALE
  5
50
102
{ACAD_REACTORS
330
47
102
}
330
47
100
AcDbScale
 70
     0
300
1:30
140
1.0
141
30.0
290
     0
  0
SCALE
  5
51
102
{ACAD_REACTORS
330
47
102
}
330
47
100
AcDbScale
 70
     0
300
1:40
140
1.0
141
40.0
290
     0
  0
SCALE
  5
52
102
{ACAD_REACTORS
330
47
102
}
330
47
100
AcDbScale
 70
     0
300
1:50
140
1.0
141
50.0
290
     0
  0
SCALE
  5
53
102
{ACAD_REACTORS
330
47
102
}
330
47
100
AcDbScale
 70
     0
300
1:100
140
1.0
141
100.0
290
     0
  0
SCALE
  5
54
102
{ACAD_REACTORS
330
47
102
}
330
47
100
AcDbScale
 70
     0
300
2:1
140
2.0
141
1.0
290
     0
  0
SCALE
  5
55
102
{ACAD_REACTORS
330
47
102
}
330
47
100
AcDbScale
 70
     0
300
4:1
140
4.0
141
1.0
290
     0
  0
SCALE
  5
56
102
{ACAD_REACTORS
330
47
102
}
330
47
100
AcDbScale
 70
     0
300
8:1
140
8.0
141
1.0
290
     0
  0
SCALE
  5
57
102
{ACAD_REACTORS
330
47
102
}
330
47
100
AcDbScale
 70
     0
300
10:1
140
10.0
141
1.0
290
     0
  0
SCALE
  5
58
102
{ACAD_REACTORS
330
47
102
}
330
47
100
AcDbScale
 70
     0
300
100:1
140
100.0
141
1.0
290
     0
  0
ENDSEC
  0
EOF
